<svg xmlns="http://www.w3.org/2000/svg" fill="#e65121" xmlns:xlink="http://www.w3.org/1999/xlink" version="1.1" x="0px" y="0px" viewBox="0 0 100 125" enable-background="new 0 0 100 100" xml:space="preserve"><g><polygon fill="none" points="29.916,45.573 29.792,45.315 29.15,45.315 24.876,45.315 24.233,45.315 23.979,45.846 21.842,50.311    21.678,50.657 21.842,51.002 23.979,55.467 24.233,55.999 24.876,55.999 29.15,55.999 29.792,55.999 29.858,55.865 24.876,55.122    22.739,50.657 24.876,46.192  "/><path fill="none" d="M24.996,43.145c0.635-0.249,1.313-0.387,2.017-0.387s1.382,0.138,2.018,0.387"/><path fill="none" d="M30.749,44.174c0.4,0.337,0.765,0.729,1.093,1.162l5.5-0.677c1.144-1.236,2.646-2.282,4.378-3.098"/><path fill="none" d="M6.955,49.676l0.021,0.104h13.531c0.213-2.322,1.26-4.338,2.771-5.607"/><path fill="none" d="M41.329,60.438l0.157-0.784c-1.455-0.712-2.73-1.599-3.765-2.618l-6.014-0.897   c-0.284,0.354-0.588,0.685-0.921,0.969l6.842,25.904l3.327-20.694l0.022,0.008c-0.166-0.231-0.26-0.493-0.26-0.771   C40.729,61.116,40.959,60.724,41.329,60.438z"/><path fill="none" d="M52.705,60.701c-0.255-0.154-0.681-0.256-1.032-0.266c-0.113,0.003-0.219,0.014-0.325,0.033   c-0.681,0.121-1.165,0.563-1.176,1.07c-0.003,0.532,0.482,0.981,1.175,1.107c0.103,0.017,0.21,0.029,0.32,0.033l0.056-0.002   c0.009,0,0.016-0.002,0.025-0.003c0.4-0.014,0.749-0.125,1.012-0.3c0.313-0.203,0.507-0.494,0.507-0.818   c0-0.06-0.013-0.116-0.025-0.173C53.183,61.107,52.983,60.871,52.705,60.701z M52.713,61.938c-0.188,0.273-0.557,0.468-0.995,0.468   c-0.15,0-0.291-0.024-0.421-0.065c-0.417-0.124-0.711-0.429-0.711-0.785c0-0.001,0.001-0.003,0.001-0.007   c0.003-0.354,0.296-0.653,0.709-0.778c0.13-0.04,0.271-0.064,0.421-0.064c0.435,0,0.793,0.189,0.976,0.46   c0.054,0.08,0.097,0.16,0.117,0.249c0.011,0.047,0.037,0.092,0.037,0.141C52.848,61.694,52.792,61.82,52.713,61.938z"/><path fill="none" d="M20.507,51.533H7.334l6.818,37.325l9.064-31.772C21.74,55.814,20.717,53.824,20.507,51.533z"/><path fill="none" d="M27.013,58.555c-0.736,0-1.442-0.151-2.104-0.422l-9.551,33.263l21.271-5.084l-7.549-28.165   C28.431,58.41,27.737,58.555,27.013,58.555z"/><path fill="none" d="M43.769,60.701c-0.226-0.137-0.583-0.228-0.907-0.254l-0.45,0.021l-0.578,0.217   c-0.355,0.204-0.591,0.508-0.599,0.853c-0.002,0.532,0.482,0.981,1.176,1.107c0.102,0.017,0.21,0.029,0.32,0.033l0.055-0.002   c0.009,0,0.016-0.002,0.026-0.003c0.399-0.014,0.748-0.125,1.011-0.3c0.314-0.203,0.507-0.494,0.507-0.818   c0-0.06-0.012-0.116-0.024-0.173C44.247,61.107,44.047,60.871,43.769,60.701z M43.776,61.938c-0.188,0.273-0.557,0.468-0.995,0.468   c-0.149,0-0.291-0.024-0.421-0.065c-0.417-0.124-0.71-0.429-0.71-0.785c0-0.001,0.001-0.003,0.001-0.007   c0.003-0.354,0.295-0.653,0.709-0.778c0.13-0.04,0.271-0.064,0.421-0.064c0.435,0,0.793,0.189,0.977,0.46   c0.053,0.08,0.096,0.16,0.116,0.249c0.012,0.047,0.037,0.092,0.037,0.141C43.911,61.694,43.855,61.82,43.776,61.938z"/><path fill="none" d="M76.835,56.602c-1.384-1.139-2.348-2.964-2.56-5.069h-7.68l0.936,6.377l4.34,29.585l4.802-29.887   L76.835,56.602z"/><path fill="none" d="M80.194,57.854c-0.536,0-1.054-0.095-1.549-0.254l-5.596,34.833l13.62-5.637l-4.908-29.202   C81.261,57.758,80.737,57.854,80.194,57.854z"/><path fill="none" d="M83.585,44.738c1.368,1.141,2.317,2.953,2.528,5.042h6.992l-5.276-28.459L83.585,44.738z"/><path fill="none" d="M83.568,56.593l4.199,24.989l5.306-30.049h-6.96C85.902,53.631,84.945,55.452,83.568,56.593z"/><path fill="none" d="M80.194,43.459c0.555,0,1.085,0.099,1.596,0.268l5.023-27.715L73.094,7.698l5.565,36.011   C79.151,43.553,79.663,43.459,80.194,43.459z"/><path fill="none" d="M55.066,44.435c-0.123-0.138-0.252-0.271-0.381-0.402c-0.133-0.13-0.269-0.257-0.405-0.381   c-1.689-1.502-3.919-2.465-6.378-2.598c-0.193-0.01-0.387-0.017-0.581-0.017c-0.002,0-0.005,0-0.007,0   c-0.197,0-0.393,0.007-0.586,0.017c-2.461,0.136-4.688,1.102-6.375,2.605c-0.14,0.124-0.273,0.251-0.405,0.382   c-0.131,0.13-0.259,0.265-0.382,0.402c-1.394,1.553-2.278,3.528-2.399,5.692c-0.011,0.173-0.016,0.346-0.016,0.521   c0,0.002,0,0.003,0,0.005c0,0.177,0.006,0.353,0.016,0.528c0.125,2.162,1.012,4.138,2.407,5.689   c0.123,0.137,0.251,0.271,0.382,0.401c0.132,0.131,0.267,0.257,0.406,0.38c1.689,1.502,3.917,2.468,6.378,2.597   c0.192,0.012,0.386,0.018,0.581,0.018c0.002,0,0.003,0,0.005,0c0.198,0,0.394-0.005,0.588-0.018   c2.461-0.135,4.688-1.102,6.374-2.604c0.138-0.123,0.274-0.251,0.405-0.383c0.131-0.131,0.259-0.262,0.383-0.402   c1.393-1.552,2.274-3.526,2.398-5.692c0.011-0.172,0.017-0.345,0.017-0.521c0-0.001,0-0.003,0-0.005   c0-0.178-0.006-0.352-0.018-0.527C57.347,47.961,56.464,45.987,55.066,44.435z M47.901,42.112c2.137,0.131,4.073,0.974,5.549,2.285   l-2.534,2.276l-3.015-1.119V42.112z M46.728,42.113v3.442l-3.012,1.125l-2.535-2.276C42.655,43.092,44.59,42.246,46.728,42.113z    M40.399,45.192l2.486,2.235l-1.246,2.708h-3.298C38.461,48.263,39.213,46.552,40.399,45.192z M38.344,51.191h3.297l1.253,2.707   l-2.488,2.235C39.219,54.773,38.465,53.062,38.344,51.191z M46.74,59.203c-2.139-0.129-4.074-0.974-5.55-2.286l2.535-2.275   l3.015,1.117V59.203z M47.326,54.838l-3.292-1.221l-1.365-2.955l1.358-2.957l3.288-1.228l3.292,1.221l1.367,2.953l-1.359,2.957   L47.326,54.838z M47.914,59.202v-3.442l3.013-1.124l2.534,2.275C51.986,58.22,50.051,59.068,47.914,59.202z M54.242,56.12   l-2.487-2.231l1.246-2.711h3.296C56.179,53.052,55.427,54.765,54.242,56.12z M52.999,50.125l-1.251-2.707l2.485-2.233   c1.187,1.357,1.943,3.068,2.063,4.94H52.999z"/><path fill="none" d="M76.582,44.947c0.088-0.081,0.17-0.168,0.261-0.243l-4.995-32.326l-4.741,31.986l-0.786,5.3l0.019,0.124V49.78   h7.935C74.476,47.812,75.34,46.095,76.582,44.947z"/><path d="M95.199,50.397l-6.492-35.022c-0.043-0.237-0.194-0.449-0.417-0.583L72.374,5.145c-0.281-0.169-0.639-0.197-0.947-0.072   c-0.307,0.124-0.521,0.383-0.566,0.684l-5.705,38.487l-2.753-0.169c-2.804-2.633-7.234-4.341-12.234-4.341   c-2.377,0-4.611,0.403-6.619,1.09l-4.754-25.964c-0.066-0.308-0.313-0.561-0.644-0.664L15.225,7.18   c-0.264-0.081-0.553-0.056-0.796,0.068c-0.242,0.123-0.415,0.334-0.472,0.579L5.006,49.481C4.978,49.594,4.977,49.71,5,49.824   l7.975,42.979c0.049,0.24,0.208,0.45,0.438,0.582c0.157,0.09,0.339,0.137,0.522,0.137c0.083,0,0.167-0.009,0.25-0.029l23.903-5.711   c0.366-0.088,0.643-0.359,0.71-0.693l3.976-23.948h0.013v0.007c2.315-0.048,4.806-0.564,4.806-1.587   c0-0.077-0.028-0.151-0.057-0.224c0.023,0.024,0.06,0.051,0.077,0.075c0.666,0.081,1.347,0.132,2.041,0.147   c0.002,0.739,0.655,1.372,1.593,1.541c0.132,0.023,0.271,0.039,0.413,0.042l0.064-0.002v0.007c2.314-0.048,4.806-0.564,4.806-1.587   c0-0.296-0.216-0.559-0.625-0.788c2.083-0.603,3.949-1.508,5.464-2.657l4.203-0.139l5.288,36.045   c0.04,0.275,0.225,0.519,0.495,0.651c0.146,0.072,0.309,0.111,0.472,0.111c0.139,0,0.279-0.026,0.408-0.083l15.917-6.586   c0.296-0.123,0.505-0.37,0.555-0.661L95.2,50.679C95.217,50.585,95.216,50.491,95.199,50.397z M41.72,41.561   c-1.732,0.816-3.234,1.862-4.378,3.098l-5.5,0.677c-0.328-0.433-0.693-0.825-1.093-1.162l6.628-26.679L41.72,41.561z    M35.977,15.384l-6.945,27.761c-0.636-0.249-1.314-0.387-2.018-0.387s-1.382,0.138-2.017,0.387L16.315,9.368L35.977,15.384z    M24.876,55.122l4.982,0.743l-0.065,0.134H29.15h-4.274h-0.643l-0.254-0.532l-2.136-4.464l-0.165-0.345l0.165-0.346l2.136-4.465   l0.254-0.531h0.643h4.274h0.642l0.124,0.258l-5.04,0.62l-2.137,4.465L24.876,55.122z M6.955,49.676l8.053-37.873l8.271,32.37   c-1.511,1.27-2.558,3.286-2.771,5.607H6.976L6.955,49.676z M14.153,88.858L7.334,51.533h13.173c0.209,2.291,1.232,4.281,2.71,5.552   L14.153,88.858z M15.358,91.396l9.551-33.263c0.662,0.271,1.367,0.422,2.104,0.422c0.724,0,1.417-0.146,2.068-0.408l7.549,28.165   L15.358,91.396z M40.976,62.327l-0.022-0.008l-3.327,20.694l-6.842-25.904c0.333-0.284,0.637-0.615,0.921-0.969l6.014,0.897   c1.034,1.019,2.31,1.906,3.765,2.618l-0.157,0.784c-0.37,0.285-0.6,0.677-0.612,1.117C40.716,61.834,40.811,62.095,40.976,62.327z    M43.823,62.374c-0.263,0.175-0.611,0.286-1.011,0.3c-0.01,0.001-0.017,0.003-0.026,0.003l-0.055,0.002   c-0.11-0.004-0.218-0.016-0.32-0.033c-0.694-0.126-1.179-0.575-1.176-1.107c0.008-0.345,0.244-0.649,0.599-0.853l0.578-0.217   l0.45-0.021c0.324,0.026,0.681,0.117,0.907,0.254c0.278,0.169,0.479,0.406,0.537,0.681c0.012,0.058,0.024,0.114,0.024,0.173   C44.33,61.879,44.137,62.171,43.823,62.374z M52.76,62.374c-0.264,0.175-0.612,0.286-1.012,0.3   c-0.01,0.001-0.017,0.003-0.025,0.003l-0.056,0.002c-0.11-0.004-0.218-0.016-0.32-0.033c-0.693-0.126-1.178-0.575-1.175-1.107   c0.011-0.508,0.495-0.949,1.176-1.07c0.106-0.019,0.212-0.029,0.325-0.033c0.351,0.01,0.777,0.112,1.032,0.266   c0.278,0.169,0.478,0.406,0.537,0.681c0.012,0.058,0.025,0.114,0.025,0.173C53.267,61.879,53.074,62.171,52.76,62.374z    M57.491,50.657c0,0.175-0.006,0.349-0.017,0.521c-0.124,2.166-1.005,4.141-2.398,5.692c-0.124,0.14-0.252,0.271-0.383,0.402   c-0.131,0.132-0.268,0.26-0.405,0.383c-1.687,1.502-3.913,2.469-6.374,2.604c-0.194,0.012-0.39,0.018-0.588,0.018   c-0.002,0-0.003,0-0.005,0c-0.195,0-0.389-0.005-0.581-0.018c-2.461-0.129-4.689-1.095-6.378-2.597   c-0.139-0.123-0.274-0.249-0.406-0.38c-0.131-0.13-0.259-0.265-0.382-0.401c-1.395-1.552-2.282-3.528-2.407-5.689   c-0.01-0.175-0.016-0.351-0.016-0.528c0-0.002,0-0.003,0-0.005c0-0.175,0.005-0.349,0.016-0.521   c0.121-2.164,1.005-4.139,2.399-5.692c0.123-0.138,0.25-0.272,0.382-0.402c0.132-0.131,0.265-0.258,0.405-0.382   c1.688-1.503,3.915-2.47,6.375-2.605c0.193-0.01,0.389-0.017,0.586-0.017c0.001,0,0.005,0,0.007,0c0.194,0,0.388,0.007,0.581,0.017   c2.459,0.133,4.689,1.096,6.378,2.598c0.137,0.124,0.272,0.251,0.405,0.381c0.129,0.131,0.258,0.264,0.381,0.402   c1.397,1.552,2.281,3.526,2.407,5.69c0.012,0.175,0.018,0.35,0.018,0.527C57.491,50.654,57.491,50.656,57.491,50.657z    M86.813,16.012L81.79,43.728c-0.51-0.169-1.041-0.268-1.596-0.268c-0.531,0-1.043,0.093-1.535,0.25L73.094,7.698L86.813,16.012z    M66.339,49.789l-0.019-0.124l0.786-5.3l4.741-31.986l4.995,32.326c-0.091,0.075-0.173,0.163-0.261,0.243   c-1.242,1.148-2.105,2.865-2.307,4.833h-7.935V49.789z M71.871,87.496l-4.34-29.585l-0.936-6.377h7.68   c0.211,2.105,1.176,3.93,2.56,5.069l-0.162,1.007L71.871,87.496z M73.049,92.434l5.596-34.833c0.496,0.159,1.014,0.254,1.549,0.254   c0.543,0,1.066-0.096,1.566-0.259l4.908,29.202L73.049,92.434z M87.767,81.582l-4.199-24.989c1.377-1.142,2.334-2.962,2.545-5.06   h6.96L87.767,81.582z M86.113,49.78c-0.211-2.089-1.161-3.901-2.528-5.042l4.244-23.417l5.276,28.459H86.113z"/><path d="M52.693,61.167c-0.183-0.271-0.541-0.46-0.976-0.46c-0.15,0-0.291,0.024-0.421,0.064c-0.414,0.125-0.706,0.424-0.709,0.778   c0,0.003-0.001,0.005-0.001,0.007c0,0.355,0.294,0.661,0.711,0.785c0.13,0.041,0.271,0.065,0.421,0.065   c0.438,0,0.808-0.194,0.995-0.468c0.08-0.118,0.135-0.243,0.135-0.382c0-0.049-0.026-0.093-0.037-0.141   C52.791,61.327,52.748,61.246,52.693,61.167z"/><path d="M43.758,61.167c-0.183-0.271-0.542-0.46-0.977-0.46c-0.149,0-0.291,0.024-0.421,0.064   c-0.414,0.125-0.706,0.424-0.709,0.778c0,0.003-0.001,0.005-0.001,0.007c0,0.355,0.293,0.661,0.71,0.785   c0.13,0.041,0.271,0.065,0.421,0.065c0.438,0,0.808-0.194,0.995-0.468c0.079-0.118,0.134-0.243,0.134-0.382   c0-0.049-0.025-0.093-0.037-0.141C43.854,61.327,43.811,61.246,43.758,61.167z"/><polygon points="51.973,50.652 50.606,47.699 47.314,46.478 44.027,47.706 42.669,50.663 44.034,53.618 47.326,54.838    50.614,53.608  "/><path d="M51.748,47.417l1.251,2.707h3.298c-0.121-1.873-0.876-3.583-2.063-4.94L51.748,47.417z"/><path d="M46.728,45.555v-3.442c-2.138,0.133-4.072,0.979-5.546,2.292l2.535,2.276L46.728,45.555z"/><path d="M47.914,55.759v3.442c2.137-0.133,4.072-0.981,5.546-2.292l-2.534-2.275L47.914,55.759z"/><path d="M53.451,44.396c-1.476-1.311-3.412-2.153-5.549-2.285v3.442l3.015,1.119L53.451,44.396z"/><path d="M42.886,47.427l-2.486-2.235c-1.186,1.359-1.938,3.071-2.058,4.943h3.298L42.886,47.427z"/><path d="M51.755,53.889l2.487,2.231c1.186-1.355,1.937-3.068,2.055-4.942h-3.296L51.755,53.889z"/><path d="M41.189,56.917c1.476,1.312,3.412,2.156,5.55,2.286v-3.444l-3.015-1.117L41.189,56.917z"/><path d="M41.641,51.191h-3.297c0.121,1.871,0.875,3.583,2.063,4.941l2.488-2.235L41.641,51.191z"/></g><text x="0" y="115" fill="#000000" font-size="5px" font-weight="bold" font-family="'Helvetica Neue', Helvetica, Arial-Unicode, Arial, Sans-serif">Created by Hernan D. Schlosman</text><text x="0" y="120" fill="#000000" font-size="5px" font-weight="bold" font-family="'Helvetica Neue', Helvetica, Arial-Unicode, Arial, Sans-serif">from the Noun Project</text></svg>
