<svg xmlns="http://www.w3.org/2000/svg" fill="#974c5c" viewBox="0 0 100 125" x="0px" y="0px"><title>Universe</title><g data-name="Your Icon"><path d="M49.5,8a42,42,0,1,0,42,42A42,42,0,0,0,49.5,8ZM73.17,45.36c0-.78-.12-1.55-.21-2.31C73,43.81,73.12,44.58,73.17,45.36ZM70.92,34.24c-.23-.66-.48-1.31-.74-1.94C70.44,32.94,70.69,33.59,70.92,34.24Zm-12-16.77a24.27,24.27,0,0,0,3.93,3.45,34.87,34.87,0,0,1,4,5C59,24.15,52.25,19,50,12.95A29.15,29.15,0,0,1,58.88,17.48ZM47.17,12.25c3,7.68,8.43,15.06,18,16.33,1-.07,2.07-.11,3.17-.14-.44-.8-.91-1.57-1.4-2.32A37.46,37.46,0,0,1,70,31.87a31.43,31.43,0,0,1-19.73-8.25,37,37,0,0,1-6.83-11.83c-.45,0-.91,0-1.36,0,2.49,10.57,11,19.71,26,22.69,1,.13,2,.23,3.07.32.32.94.61,1.89.86,2.87C68.07,36.9,64.41,35.7,60.8,35,47.4,31,39.51,22.2,37.09,12.21A27,27,0,0,1,42,11.75,27.3,27.3,0,0,1,47.17,12.25Zm-10.33,0c-.63.12-1.25.26-1.87.42C35.59,12.51,36.22,12.38,36.84,12.25Zm6.49,15.93c8.74,7.87,18.77,9.9,29,11q.37,1.74.59,3.54a47.53,47.53,0,0,1-21.61-5A44.8,44.8,0,0,1,30.54,14.27,28.14,28.14,0,0,1,35,12.68,33.69,33.69,0,0,0,43.33,28.18Zm-13-13.83-.8.39Zm-5.55,3.36a101.15,101.15,0,0,0,6.62,13.38c8.13,13.32,25,18.16,41.74,19-.06,1-.15,2.06-.28,3.08a115.79,115.79,0,0,1-13.31-2C39.64,48.35,26.19,36.6,20.42,21.76A32.65,32.65,0,0,1,24.81,17.71Zm-9,10.5,0,.07ZM11,52.69a37.44,37.44,0,0,0,5.32,3.8c7.68,5.5,15.21,9,25.3,14.31A74.61,74.61,0,0,0,61.9,75.71a31.94,31.94,0,0,1-3.2,2.69,113.63,113.63,0,0,0-11.78-1.92C37,73.17,27,69.86,19.36,64.36q-3.66-2.62-7.11-5.43A40.75,40.75,0,0,1,11,52.69Zm1.21,6.24c.2.73.43,1.44.67,2.15C12.68,60.37,12.45,59.66,12.25,58.93ZM42,84c-9.29,0-17.63-4.69-23.35-12.14.35.46.71.91,1.08,1.34q2.6,1.49,5.35,2.87a135.57,135.57,0,0,0,22.13,7.41A27.3,27.3,0,0,1,42,84Zm5.21-.51c.64-.12,1.27-.28,1.9-.45C48.48,83.21,47.85,83.37,47.21,83.49Zm2.1-.5a102.55,102.55,0,0,1-26.79-8.74c-1.35-.8-2.65-1.62-3.93-2.46a37.48,37.48,0,0,1-5.65-10.63c11.63,9.11,26.42,15.76,43.62,18.67.71-.43,1.39-.9,2.07-1.39A29,29,0,0,1,49.3,83Zm12.84-7.5.8-.81C62.68,74.95,62.41,75.22,62.14,75.49Zm1-1.06c-20-2.42-38.9-10.93-52.35-24.11,0-.81-.08-1.62-.08-2.44,0-1.25.07-2.49.18-3.71A85,85,0,0,0,26.14,57.79c12.12,6.86,24.11,11.85,40.06,12.93A34.71,34.71,0,0,1,63.18,74.43ZM43.61,64.59C31.37,59.55,19,52.58,11,43.35a40.63,40.63,0,0,1,1.58-7.68c10.75,16.22,30.19,28,55.28,29.15l1.78-.13a37.38,37.38,0,0,1-2.45,4.57C59.33,68.25,50.87,67,43.61,64.59ZM33.07,53.23c-8.2-5.87-14.82-11.88-20-19a38.24,38.24,0,0,1,2.63-5.83q.54.88,1.13,1.76c.34.36.66.74,1,1.13-.68-1.09-1.29-2.2-1.86-3.33a36,36,0,0,1,3.43-5A51.32,51.32,0,0,0,37.3,44.82c10.26,7.35,22.6,10.56,35.26,10.53q-.35,1.93-.88,3.78A104,104,0,0,1,50.24,56C40.3,52.69,35,47,27.36,41.51a35.24,35.24,0,0,1-6.59-6.1C24.27,40.65,27.91,46.6,35.19,49c7.53,3.49,15.21,9,25,10.29a96,96,0,0,0,11.22.82q-.58,1.87-1.34,3.64C56.62,63.11,44.31,59.87,33.07,53.23ZM72.79,54c0,.29-.09.57-.13.86C72.71,54.53,72.75,54.24,72.79,54Zm.45-5.57c-20.79-.32-41-10.17-47.52-29l-.16-2.21a29.85,29.85,0,0,1,3.76-2.29,40.28,40.28,0,0,0,4.09,10c8.13,11.54,20.62,16.68,33,19.81a56.82,56.82,0,0,0,6.8.67c0,.83.08,1.67.08,2.52C73.25,48,73.24,48.21,73.24,48.38Z"/><path d="M17.8,31.28a36.26,36.26,0,0,0,3,4.13C19.8,33.95,18.83,32.54,17.8,31.28Z"/></g><text x="0" y="115" fill="#000000" font-size="5px" font-weight="bold" font-family="'Helvetica Neue', Helvetica, Arial-Unicode, Arial, Sans-serif">Created by Elves Sousa</text><text x="0" y="120" fill="#000000" font-size="5px" font-weight="bold" font-family="'Helvetica Neue', Helvetica, Arial-Unicode, Arial, Sans-serif">from the Noun Project</text></svg>
